<?xml version="1.0" encoding="UTF-8"?>
<svg id="Capa_1" data-name="Capa 1" xmlns="http://www.w3.org/2000/svg" version="1.1" viewBox="0 0 474 474">
  <defs>
    <style>
      .cls-1 {
        font-family: Poppins-Black, Poppins;
        font-size: 26.2px;
        font-weight: 800;
      }

      .cls-1, .cls-2 {
        fill: #005764;
      }

      .cls-3 {
        fill: #55c496;
      }

      .cls-3, .cls-2, .cls-4, .cls-5, .cls-6 {
        stroke-width: 0px;
      }

      .cls-4 {
        fill: #e4eaf0;
      }

      .cls-5 {
        fill: #fff;
      }

      .cls-6 {
        fill: #28aa96;
      }
    </style>
  </defs>
  <g>
    <g>
      <path class="cls-3" d="M462.5,260.2l-1.6.3c-.3,0-.5,0-.6-.2-2.4-2.7-4.3-5.8-6.7-8.3-7-7.8-13.9-15.3-20.6-22.5-.6-.7-1.7-1.7-3.3-3.3-3.7-4.3-7.6-8.6-11.5-12.8-4.5-4.9-8-8.6-10.4-11.3-7.6-8.6-12.6-14-14.9-16.4-5.4-5.5-9.7-10.4-13.1-14.7-4.2-5.2-7.2-8.9-8.9-11-.5-.5-.8-.8-1.1-.9-.4,0-.7.1-1.1.5-5-20.6-26.7-28.6-45.1-19.8-1.9.9-4.3,2.6-7.1,5-.1.1-.3.1-.5,0-.8-.7-1.8-1.6-2.7-2.2-6.8-4.2-13.6-8.4-20.5-12.4.8-.7,1-1.4.5-1.9-2-2.2-3.8-4.2-5.2-5.9-2.7-3.3-4.4-5.3-5.1-6.1-1.6-1.8-3.1-3.7-4.6-5.8-3.9-5.2-7.9-10-11.2-14.1-.3-.3-.5-.5-.8-.6-.5-.1-.8,0-1,.5-5.8-11.2-14.9-17-27.1-17.5-8-.3-14.9,2-20.6,6.9-3.9,3.3-6.8,7.5-8.6,12.4-3.2,8.4-2.5,16.9,1.9,25.6l-7.9,7.8c-1.9-3.2-3.3-6.7-4.3-10.6,0-.2-.3-.4-.5-.3,0,0,0,0-.1,0-12.3,7.3-24.6,14.7-37,22.2-.4.3-.9.6-1.6,1.1-.9.7-1.5,1.1-1.6,1.2-.2.1-.4,0-.6,0-5-4.9-11-7.8-18-8.5-16.1-1.6-29.7,6.6-33.8,22.6-.8,3.3-1.1,7-.8,11.1-1.5,5.8.9,10.9,4,15.6,1.8,2.6,2.7,4,2.7,4,2.9,4.7,6.1,9.4,9.6,14,.6.8,1.4,1.6,2.2,2.2-.2,1.3-.2,2.3.1,2.9v63c-.6,3.3-.9,7-.8,11-9.7,4.8-15.4,12.3-17.2,22.6-1.9,11.2,1.5,20.6,10.2,28.1-.4,0-.7,0-.8.3,0,.2,0,.4,0,.7.2.6.5,1.1.8,1.3,1.4,1.1,2.7,2.3,3.9,3.6,2.2,2.5,3.4,3.8,3.5,4,3.2,3.2,5.6,5.8,7.4,7.8,5.4,6.1,11.6,12.9,18.7,20.2,5.2,5.4,8.7,9.1,10.6,11.1,9.4,9.7,14.5,14.9,15.3,15.7,2.1,1.9,3.8,3.7,5.1,5.2.9,1.1,1.7,1.9,2.2,2.4.8.8,1.7,1.6,2.6,2.4,3.2,3.6,5.5,6.3,7.1,8,4.8,5.2,12.1,12.9,21.9,23.3,5.4,5.7,10.7,10.2,15.9,13.5,5.5,3.5,12.2,6.6,20.2,9.5-35.4,2.1-69-3.6-100.8-17.1-29.9-12.7-56.2-31.2-78.9-55.5-3.5-3.7-6.8-7.6-10-11.6-27.1-33.6-43.3-72.4-48.6-116.3-1.4-11.7-1.8-23.5-1.1-35.4,1.8-32.4,9.8-62.8,24.1-91.2,3.4-6.8,7.9-14.4,13.5-22.9,6.6-10.1,14.6-20,23.8-29.6,9.7-10.1,19.5-18.9,30.6-27,16.5-12,34.2-21.8,53.1-29.4,36-14.4,73.3-19.1,111.9-14,13.1,1.7,25.5,4.6,37.3,8.7,49.8,17.2,89.6,47,119.5,89.6,15.9,22.6,27,48.2,33.4,75.4,5.8,24.5,7.3,49.1,4.7,73.7Z"/>
      <path class="cls-5" d="M264.7,95.6c3,7.9,3.2,15.6.8,22.9-1.7,5-4.5,9.2-8.3,12.6-5.7,5.1-12.7,7.6-20.9,7.4-11.3-.2-20-5.4-26-15.4-4.4-8.6-5-17.2-1.9-25.6,1.9-4.9,4.7-9.1,8.6-12.4,5.7-4.9,12.6-7.2,20.6-6.9,12.3.4,21.3,6.3,27.1,17.5Z"/>
      <path class="cls-6" d="M292.1,129.6l-5.7-3.4-10.5-6.4c-.2,0-.4,0-.5.1,0,0,0,0,0,.1-.3,1.8-.8,3.8-1.6,5.8-2.5,6.2-5.9,11.5-10.2,15.8-.3.3-.3.7,0,1,0,0,0,0,.1,0l9.6,6.2,34.4,20.8c.2.1.4.3.5.6.2.5.4,1.3.5,2.2.2,1.2.3,2.1.5,2.6,4.5,13.8,16.7,21.7,31.1,20.9,9-.5,16.4-4.2,22.1-11.2,5.9-7.2,7.7-15.8,5.7-25.7.4-.3.7-.5,1.1-.5.3,0,.7.3,1.1.9,1.8,2.1,4.8,5.8,8.9,11,3.4,4.3,7.8,9.1,13.1,14.7,2.3,2.4,7.3,7.9,14.9,16.4,2.4,2.7,5.8,6.4,10.4,11.3,3.9,4.2,7.8,8.5,11.5,12.8-3.6,10.1-8.8,19.1-15.8,27.2-9.7,11.3-19.5,22.4-29.6,33.3-1.9,2-5.8,7-11.7,15-.2.2-.1.4,0,.6,1.9,2,3.8,4.1,5.7,6.3,1.4,1.7,3.4,3.9,5.9,6.5,12.8,13.5,25.2,27,37.3,40.5,1.7,1.9,3.1,4,4.6,6-21.5,32.1-49.3,57.2-83.3,75.3-15.5,8.3-31.7,14.6-48.7,18.9-2,.5-3.9,1-5.8,1.4-7-6.7-14.2-13-21.5-19-6.1-5-11.1-8.8-15.1-11.4-9.7-6.3-20.7-10.5-33-12.6-11.4-1.9-22.7-3.9-33.9-6-.9-.8-1.7-1.6-2.6-2.4-.5-.5-1.2-1.3-2.2-2.4-1.3-1.5-3-3.3-5.1-5.2-.9-.8-6-6-15.3-15.7-1.9-1.9-5.4-5.6-10.6-11.1-7-7.3-13.2-14-18.7-20.2-1.8-2-4.2-4.6-7.4-7.8-.2-.2-1.4-1.5-3.5-4-1.2-1.3-2.5-2.5-3.9-3.6-.3-.3-.6-.7-.8-1.3-.1-.3-.1-.5,0-.7.2-.3.4-.4.8-.3,5.4,4.2,11.5,6.4,18.1,6.7,5.2.2,10-.6,14.3-2.6,4.4-2,8.3-5.1,11.6-9.4.1-.2.3-.2.5,0l38.1,22c.2.1.3,0,.4-.2,1.7-6.5,4.8-12.3,9.4-17.4,1.8-2,3.2-3.5,4.1-4.5.2-.2.2-.5,0-.7,0,0,0,0,0,0-6.8-3.9-13.3-8-19.9-11.7-8.6-4.8-17.3-9.7-25.9-14.8-.8-.5-1.3-1-1.6-1.6-.5-1-.9-1.7-1.1-2.1-4.8-9.5-14.3-16-24.8-16.8-5.7-.4-11.1.4-16.2,2.5,0-4,.2-7.7.9-11,8.8-2.7,17.5-2.6,26,.3.1,0,.3,0,.3-.2,0,0,0,0,0,0l.2-26.3-.2-39.4c0-.3-.1-.4-.4-.3-1.5.4-3,.8-4.5,1.2-6,1.7-11.8,1.7-17.5,0-1.4-.4-2.7-.8-4.1-1.3-.8-.6-1.5-1.4-2.2-2.2-3.5-4.6-6.7-9.3-9.6-14,0,0-.9-1.4-2.7-4-3.2-4.8-5.5-9.8-4-15.6.5,5.7,2.4,10.6,5.9,14.8,6.3,7.8,14.7,11.6,25.1,11.6,13.2,0,23.4-7.6,28.1-19.6.7-1.8,1-4,1.6-5.9,0-.3.2-.4.4-.6,10.9-6.7,21.4-12.9,31.3-18.7,4.8-2.8,9.3-5.7,13.5-8.6.2-.2.3-.5.1-.7,0,0,0,0,0,0-3-3.3-5.6-7-7.8-11l7.9-7.8c6,10.1,14.7,15.2,26,15.4,8.2.2,15.2-2.3,20.9-7.4,3.9-3.5,6.6-7.7,8.3-12.6,2.5-7.3,2.2-14.9-.8-22.9.2-.4.5-.6,1-.5.3,0,.5.3.8.6,3.3,4.2,7.2,9,11.2,14.1,1.5,2,3.1,3.9,4.6,5.8.7.8,2.4,2.9,5.1,6.1,1.5,1.8,3.2,3.8,5.2,5.9.5.5.3,1.2-.5,1.9ZM237,320.8c4.1,0,8.2.5,12.3,1.6.1,0,.3,0,.3-.2,0,0,0,0,0,0v-114.7c0-.3.1-.4.4-.4h33.8c.2,0,.3,0,.3-.3v-24.4c0-.3-.1-.4-.4-.4-28.8,0-44.4,0-46.7,0s-17.8,0-46.7,0c-.3,0-.4.1-.4.4v24.4c0,.2.1.3.3.3h33.8c.3,0,.4.1.4.4v114.7c0,.1.1.3.3.3,0,0,0,0,0,0,4-1,8.1-1.6,12.2-1.6ZM351.1,237v-31c0-.3-.2-.3-.4-.3-3.5,1-5.9,1.7-7.2,1.9-6.2.9-12.2.3-18-2l-.3-.2c-.1,0-.3,0-.4,0,0,0,0,0,0,.2v65.8c0,.4.2.5.6.4,8.4-2.8,16.8-2.8,25.4-.1.2,0,.3,0,.3-.2,0,0,0,0,0,0v-34.3ZM269.7,322.6l-7.6,4.7c-.2.1-.3.3,0,.5,5.6,5.2,9.7,11.3,12.4,18.4.4,1.2.7,2.4.8,3.6,0,.1.1.2.3.2,0,0,0,0,.1,0l5.4-3,32.7-19.1c.2-.1.5,0,.7.2.1.1.7.8,1.7,1.9,3.9,4.6,8.7,7.6,14.4,9,4.6,1.1,9.7,1.2,15.2.2,9.1-1.7,16.9-8.3,20.6-16.7,4.4-9.8,3.3-22.5-3.7-31.1-6.6-8.1-15.3-12-26-11.5-11.5.5-20.1,5.8-25.7,15.8-.8,1.4-1.2,2.1-1.3,2.3-1,2.1-4.1,3.8-5.6,4.6-11.1,6.5-22.6,13.1-34.4,19.9ZM256,384.4c7.4-6,11.1-13.9,11.1-23.8,0-4.4-1-8.6-3-12.7-4.7-9.6-12.3-15.2-22.8-16.9-4.6-.7-9.2-.4-13.6,1-9.8,3.1-16.4,9.6-19.5,19.3-3,9.3-2.1,18,2.9,25.9,3.8,6.1,9,10.1,15.7,12.1,4.9,1.4,9.8,1.8,15,1.2,5.3-.6,10-2.7,14.3-6.1Z"/>
      <path class="cls-4" d="M286.4,126.2c-.9,1.6-1.8,3.2-2.4,4.9-1.8,4.8-4.2,9.1-7.5,13-1.2,1.5-2.3,3.2-3.3,4.8l-9.6-6.2c-.3-.2-.4-.7-.2-1,0,0,0,0,0-.1,4.3-4.3,7.6-9.6,10.2-15.8.8-2,1.4-3.9,1.6-5.8,0-.2.2-.3.4-.3,0,0,0,0,.1,0l10.5,6.4Z"/>
      <path class="cls-5" d="M202.3,130.9c2.1,4,4.7,7.6,7.8,11,.2.2.2.5,0,.7,0,0,0,0,0,0-4.3,2.9-8.8,5.8-13.5,8.6-9.9,5.8-20.3,12-31.3,18.7-.2.1-.4.3-.4.6-.5,1.9-.9,4.1-1.6,5.9-4.7,12-14.9,19.5-28.1,19.6-10.4,0-18.7-3.8-25.1-11.6-3.4-4.2-5.4-9.1-5.9-14.8-.3-4.1,0-7.8.8-11.1,4.1-16,17.7-24.2,33.8-22.6,7,.7,13,3.5,18,8.5.2.2.4.2.6,0,.1,0,.6-.4,1.6-1.2.6-.5,1.2-.9,1.6-1.1,12.4-7.5,24.7-14.9,37-22.2.2-.1.5,0,.6.1,0,0,0,0,0,.1,1,3.9,2.4,7.4,4.3,10.6Z"/>
      <path class="cls-5" d="M292.1,129.6c6.9,4,13.7,8.2,20.5,12.4.9.6,1.9,1.5,2.7,2.2.1.1.3.1.5,0,2.8-2.4,5.2-4.1,7.1-5,18.4-8.8,40.1-.9,45.1,19.8,2.1,10,.2,18.5-5.7,25.7-5.7,7-13.1,10.7-22.1,11.2-14.4.7-26.6-7.1-31.1-20.9-.2-.5-.3-1.3-.5-2.6-.1-.9-.3-1.7-.5-2.2,0-.2-.3-.4-.5-.6l-34.4-20.8c1-1.7,2-3.4,3.3-4.8,3.2-3.9,5.7-8.2,7.5-13,.6-1.6,1.5-3.3,2.4-4.9l5.7,3.4Z"/>
      <path class="cls-5" d="M237,181.8c2.3,0,17.8,0,46.7,0,.3,0,.4.1.4.4v24.4c0,.2,0,.3-.3.3h-33.8c-.3,0-.4.1-.4.4v114.7c0,.1-.1.3-.3.3,0,0,0,0,0,0-4-1-8.1-1.6-12.3-1.6s-8.2.5-12.2,1.6c-.1,0-.3,0-.3-.2,0,0,0,0,0,0v-114.7c0-.3-.2-.4-.5-.4h-33.8c-.2,0-.3,0-.3-.3v-24.4c0-.3.1-.4.4-.4,28.8,0,44.4,0,46.7,0Z"/>
      <path class="cls-5" d="M325.4,205.6c-.1.5-.1.9,0,1.3.9,1.7,2,3.2,3.3,4.6,2,2.1,3,3.1,3,3.1,1.4,1.6,3.3,3.7,5.6,6.2,2.2,2.3,4.1,4.4,5.6,6.3,2.7,3.3,5.4,6.6,8.1,10v34.3c0,.2-.2.3-.3.3,0,0,0,0,0,0-8.6-2.7-17-2.6-25.4.1-.4.1-.6,0-.6-.4v-65.8c0-.1.1-.3.3-.3,0,0,.1,0,.2,0l.3.2Z"/>
      <path class="cls-4" d="M149.3,245.3c-.4-4.2-1.6-7.4-3.5-9.6-7.4-8.9-11.6-13.8-12.5-14.8-.9-1-1.8-2.1-2.8-3.1-.9-1-1.8-2.1-2.7-3.2-1.6-2.1-3.3-4.2-5.2-6.1-.3-.6-.3-1.6-.1-2.9,1.4.5,2.7.9,4.1,1.3,5.7,1.7,11.5,1.7,17.5,0,1.5-.4,3-.8,4.5-1.2.3,0,.4,0,.4.3l.2,39.4Z"/>
      <path class="cls-4" d="M351.1,237c-2.7-3.4-5.4-6.7-8.1-10-1.5-1.9-3.4-3.9-5.6-6.3-2.3-2.5-4.2-4.5-5.6-6.2,0,0-1-1.1-3-3.1-1.3-1.4-2.4-2.9-3.3-4.6-.2-.3-.2-.8,0-1.3,5.8,2.2,11.9,2.9,18,2,1.3-.2,3.8-.8,7.2-1.9.2,0,.4,0,.4.3v31Z"/>
      <path class="cls-5" d="M149.3,245.3l-.2,26.3c0,.1-.1.3-.3.3,0,0,0,0,0,0-8.5-2.9-17.2-3-26-.3v-63c1.8,1.9,3.5,4,5.1,6.1.9,1.2,1.7,2.2,2.7,3.2.9,1,1.9,2.1,2.8,3.1.9,1,5,5.9,12.5,14.8,1.9,2.2,3,5.4,3.5,9.6Z"/>
      <path class="cls-6" d="M461.9,259.7c-3.9,36.9-16,70.8-36.4,101.5-1.5-2-2.9-4.1-4.6-6-12.1-13.6-24.6-27.1-37.3-40.5-2.5-2.7-4.5-4.9-5.9-6.5-1.9-2.3-3.8-4.4-5.7-6.3-.2-.2-.2-.4,0-.6,5.9-8,9.8-13,11.7-15,10-10.9,19.9-22.1,29.6-33.3,6.9-8.1,12.2-17.2,15.8-27.2,1.6,1.5,2.7,2.6,3.3,3.3,6.7,7.2,13.6,14.7,20.6,22.5,2.4,2.6,4.3,5.6,6.7,8.3.2.2.4.3.6.2l1.6-.3Z"/>
      <path class="cls-5" d="M115,333.2c-8.7-7.5-12.1-16.9-10.2-28.1,1.7-10.2,7.4-17.8,17.2-22.6,5.1-2.1,10.5-3,16.2-2.5,10.5.8,19.9,7.4,24.8,16.8.2.4.5,1.1,1.1,2.1.3.6.8,1.1,1.6,1.6,8.6,5.1,17.3,10.1,25.9,14.8,6.6,3.6,13.1,7.8,19.9,11.7.2.1.3.5.2.7,0,0,0,0,0,0-.9,1-2.2,2.4-4.1,4.5-4.6,5.1-7.8,10.9-9.4,17.4,0,.2-.2.3-.4.2l-38.1-22c-.2,0-.4,0-.5,0-3.3,4.2-7.2,7.4-11.6,9.4-4.3,2-9,2.8-14.3,2.6-6.6-.3-12.7-2.5-18.1-6.7Z"/>
      <path class="cls-5" d="M280.9,347c-.6-3.4-1.5-6.2-2.6-8.6-2.2-4.5-5.1-9.8-8.7-15.9,11.8-6.8,23.2-13.4,34.4-19.9,1.5-.8,4.6-2.6,5.6-4.6,0-.2.5-1,1.3-2.3,5.6-10,14.2-15.3,25.7-15.8,10.7-.5,19.3,3.3,26,11.5,7,8.6,8.1,21.3,3.7,31.1-3.7,8.3-11.5,15-20.6,16.7-5.5,1-10.6.9-15.2-.2-5.7-1.4-10.5-4.4-14.4-9-1-1.2-1.5-1.8-1.7-1.9-.3-.2-.5-.3-.7-.2l-32.7,19.1Z"/>
      <path class="cls-4" d="M269.7,322.6c3.6,6.1,6.5,11.4,8.7,15.9,1.1,2.3,2,5.2,2.6,8.6l-5.4,3c-.1,0-.3,0-.3,0,0,0,0,0,0-.1,0-1.3-.4-2.5-.8-3.6-2.7-7.1-6.8-13.3-12.4-18.4-.2-.2-.2-.4,0-.5l7.6-4.7Z"/>
      <path class="cls-5" d="M256,384.4c-4.2,3.4-9,5.5-14.3,6.1-5.1.6-10.1.2-15-1.2-6.6-1.9-11.8-6-15.7-12.1-5-7.9-5.9-16.6-2.9-25.9,3.2-9.7,9.7-16.2,19.5-19.3,4.4-1.4,9-1.8,13.6-1,10.5,1.7,18.1,7.3,22.8,16.9,2,4.1,3,8.4,3,12.7,0,9.9-3.7,17.8-11.1,23.8Z"/>
      <path class="cls-6" d="M287.7,456.8c-12.7,2.9-25.5,4.6-38.3,5.4-8-2.9-14.7-6-20.2-9.5-5.3-3.3-10.6-7.8-15.9-13.5-9.8-10.3-17.1-18.1-21.9-23.3-1.6-1.7-4-4.4-7.1-8,11.2,2.1,22.5,4.1,33.9,6,12.3,2,23.3,6.2,33,12.6,4,2.6,9,6.4,15.1,11.4,7.3,6,14.5,12.4,21.5,19Z"/>
      <polygon class="cls-6" points="172.6 208.5 189.9 165.6 280.9 165.6 300.3 221.3 263.3 304.1 255.4 326 218.1 326 172.6 213.3 172.6 208.5"/>
    </g>
    <g>
      <g>
        <path class="cls-2" d="M299.9,264.6c-2.6-3.8-5.1-7.8-7.9-11.9-3.3-4.9-7.1-10.7-10.7-16.1-13.5-19.9-26.6-39.5-39.5-58.8-.9-1.3-1.8-2.6-2.7-4-1.2-1.6-2.1-3-2.8-4-.2-.2-.2-.5,0-.8.4-.8.8-1.4,1.1-2,6.5-9.7,10.7-16,12.8-19.1.2-.3.4-.5.6-.5,0,0,.2,0,.2,0,.3.3.6.7,1,1.1,11.2,16.6,23.7,35.2,37.5,55.9.8,1.2,1.9,2.8,3.3,4.9,2.2,3.2,4.3,6.3,6.2,9.3.5.8.8,1.3,1,1.6,0,0,0,.2,0,.3,0,1.2,0,3.4,0,6.6,0,3.7,0,12.8,0,27.4,0,2.6,0,5.9,0,8.9,0,.2,0,.5,0,1,0,0,0,0,0,0,0,0,0,0,0,0Z"/>
        <path class="cls-2" d="M265.8,169.7l-14.8,22.1c0,0,0,.2,0,.3v.2c0,0,0,0-.1,0l-15.1-22.5c2.7-4.1,5.5-8.2,8.2-12.2,1.6-2.4,3.9-6.1,6-9,.3-.4.6-.8.8-1.1,0,0,.2,0,.2,0l14.9,22.1Z"/>
      </g>
      <g>
        <g>
          <path class="cls-2" d="M207,182.3l14.8,22.1c0,0,0,.2,0,.3v.2" vector-effect="non-scaling-stroke"/>
          <path class="cls-2" d="M237.1,182.5l-15.1,22.5" vector-effect="non-scaling-stroke"/>
          <path class="cls-2" d="M237.4,182.9c-.7,2-1.3,3.8-1.5,5.2-.7,3.3-1.5,6.8-2.4,10.4-.1.4-.2.7-.3.9,0,.1-.1.2-.2.2-1.7.1-3.4.4-5.1.7-.5,0-.9.3-1.3.7-1.4,1.3-2.6,3-3.6,5.1" vector-effect="non-scaling-stroke"/>
        </g>
        <path class="cls-2" d="M172.9,277.3s0,0,0,0c0-.5,0-.8,0-1,0-3,0-6.3,0-8.9,0-14.6,0-23.7,0-27.4,0-3.2,0-5.4,0-6.6,0-.1,0-.2,0-.3.1-.3.5-.9,1-1.6,1.9-2.9,4-6,6.2-9.3,1.4-2.1,2.5-3.7,3.3-4.9,13.8-20.7,26.3-39.4,37.5-55.9.3-.5.6-.9,1-1.1,0,0,.1,0,.2,0,.2,0,.4.2.6.5,2.1,3,6.3,9.4,12.8,19.1.4.6.8,1.3,1.1,2,.1.3.1.6,0,.8-.7,1-1.6,2.3-2.8,4-.9,1.3-1.8,2.6-2.7,4-12.9,19.3-26,38.9-39.5,58.8-3.6,5.4-7.4,11.2-10.7,16.1-2.8,4.1-5.3,8.1-7.9,11.9,0,0,0,0,0,0Z"/>
        <path class="cls-2" d="M221.9,160.2c0,0,.2-.1.2,0,.3.3.6.7.8,1.1,2,2.9,4.3,6.6,6,9,2.7,4,5.4,8.1,8.2,12.2l-15.1,22.5s0,0-.1,0v-.2c0-.1,0-.2-.1-.3l-14.8-22.1,14.9-22.1Z"/>
        <path class="cls-2" d="M237.1,182.5l.3.5c-.7,2-1.3,3.8-1.5,5.2-.7,3.3-1.5,6.8-2.4,10.4-.1.4-.2.7-.3.9,0,.1-.1.2-.2.2-1.7.1-3.4.4-5.1.7-.5,0-.9.3-1.3.7-1.4,1.3-2.6,3-3.6,5.1l-.9-1.1,15.1-22.5Z"/>
        <path class="cls-2" d="M247.9,198.7c.3.4.5.9.5,1.3,0,.5,0,1,0,1.6,0,13.4,0,26.9,0,40.3,0,.5,0,1,0,1.4,0,.1,0,.1-.1,0l-25.3-37.3c.9-2.1,2.1-3.8,3.6-5.1.4-.4.8-.6,1.3-.7,1.7-.3,3.4-.5,5.1-.7,0,0,.1,0,.2-.2,0-.2.2-.5.3-.9,1-3.6,1.8-7.1,2.4-10.4.3-1.5.8-3.2,1.5-5.2,3.5,5.2,7,10.4,10.5,15.7Z"/>
      </g>
    </g>
  </g>
  <text class="cls-1" transform="translate(172.6 299.2)"><tspan x="0" y="0">Tecno MO</tspan></text>
</svg>